<svg width="79" height="86" viewBox="0 0 79 86" fill="none" xmlns="http://www.w3.org/2000/svg">
<rect width="73" height="73" fill="black" fill-opacity="0"/>
<rect width="73" height="73" fill="black" fill-opacity="0"/>
<rect width="73" height="73" fill="black" fill-opacity="0"/>
<rect width="73" height="73" fill="black" fill-opacity="0"/>
<path d="M26.7666 48.6596C24.8978 48.6596 23.2322 49.7501 22.4268 51.359C21.8586 51.1837 21.2709 51.0937 20.6833 51.0937C17.3291 51.0937 14.6 53.8235 14.6 57.1789C14.6 57.8507 15.1451 58.3959 15.8166 58.3959C16.4881 58.3959 17.0332 57.8507 17.0332 57.1789C17.0332 55.166 18.6709 53.5278 20.6832 53.5278C21.3281 53.5278 21.9546 53.7067 22.5447 54.0597C22.8952 54.269 23.3257 54.2884 23.6932 54.112C24.0606 53.9367 24.3161 53.5887 24.3733 53.1847C24.5424 51.9932 25.5716 51.0939 26.7664 51.0939C28.0233 51.0939 29.0574 52.0469 29.1717 53.3089C29.2179 53.8262 29.5866 54.2558 30.0891 54.3811C30.5928 54.5065 31.1196 54.2996 31.4031 53.8638C32.5321 52.1296 34.4387 51.0939 36.4996 51.0939C38.5608 51.0939 40.4672 52.1296 41.5962 53.8638C41.8797 54.2996 42.4078 54.5065 42.9102 54.3811C43.4127 54.2558 43.7814 53.8262 43.8276 53.3089C43.9419 52.0469 44.976 51.0939 46.2329 51.0939C47.4277 51.0939 48.4569 51.9932 48.626 53.1847C48.6832 53.5887 48.9387 53.9369 49.3061 54.112C49.6748 54.2884 50.1054 54.269 50.4546 54.0597C51.0447 53.7067 51.6712 53.5278 52.3161 53.5278C54.3284 53.5278 55.9661 55.166 55.9661 57.1789C55.9661 57.8507 56.5112 58.3959 57.1827 58.3959C57.8542 58.3959 58.3993 57.8507 58.3993 57.1789C58.3993 53.8236 55.6704 51.0937 52.316 51.0937C51.7282 51.0937 51.1407 51.1837 50.5725 51.359C49.7671 49.7501 48.1015 48.6596 46.2327 48.6596C44.5416 48.6596 43.0524 49.5139 42.1837 50.8369C40.641 49.4482 38.6298 48.6596 36.4994 48.6596C34.369 48.6596 32.3579 49.4483 30.8151 50.8369C29.9469 49.5139 28.4578 48.6596 26.7666 48.6596Z" fill="#FF7149"/>
<path d="M41.3665 19.4508C41.3665 16.766 39.1838 14.5828 36.4999 14.5828C33.8159 14.5828 31.6333 16.7661 31.6333 19.4508C31.6333 22.1355 33.8159 24.3189 36.4999 24.3189C39.1839 24.3189 41.3665 22.1355 41.3665 19.4508ZM36.4999 21.8848C35.158 21.8848 34.0665 20.7932 34.0665 19.4507C34.0665 18.1084 35.1578 17.0166 36.4999 17.0166C37.8419 17.0166 38.9333 18.1082 38.9333 19.4507C38.9333 20.7932 37.8419 21.8848 36.4999 21.8848Z" fill="#FF7149"/>
<path d="M35.2833 35.2722V45.0085C35.2833 45.6802 35.8284 46.2255 36.4999 46.2255C37.1715 46.2255 37.7166 45.6802 37.7166 45.0085V35.2722C37.7166 34.6004 37.1715 34.0552 36.4999 34.0552C35.8284 34.0552 35.2833 34.6003 35.2833 35.2722Z" fill="#FF7149"/>
<path d="M3.64999 63.264C4.32153 63.264 4.8666 62.7188 4.8666 62.047V25.5361C4.8666 23.7616 6.74264 21.885 8.5166 21.885H23.1166C23.7881 21.885 24.3332 21.3397 24.3332 20.668C24.3332 19.9962 23.7881 19.451 23.1166 19.451H8.5166C5.38972 19.451 2.43323 22.4084 2.43323 25.5362V62.0472C2.43337 62.7188 2.97845 63.264 3.64999 63.264Z" fill="#FF7149"/>
<path d="M71.7832 60.8299H70.5666V25.5359C70.5666 22.4081 67.6101 19.4507 64.4833 19.4507H49.8833C49.2117 19.4507 48.6667 19.9959 48.6667 20.6677C48.6667 21.3394 49.2117 21.8847 49.8833 21.8847H64.4833C66.2572 21.8847 68.1333 23.7613 68.1333 25.5357V62.0467C68.1333 62.7185 68.6783 63.2637 69.3499 63.2637H70.5665V66.9148C70.5665 68.6893 68.6904 70.5659 66.9165 70.5659H6.08337C4.71705 70.5659 3.29112 69.4536 2.70713 68.1318H66.9166C67.5882 68.1318 68.1333 67.5865 68.1333 66.9148C68.1333 66.2431 67.5882 65.6978 66.9166 65.6978H1.21662C0.545075 65.6978 0 66.2431 0 66.9148C0 70.0426 2.95649 73 6.08337 73H66.9166C70.0435 73 73 70.0426 73 66.9148V62.0467C72.9999 61.3751 72.4548 60.8299 71.7832 60.8299Z" fill="#FF7149"/>
<path d="M21.9 42.5744C21.9 43.2461 22.4451 43.7914 23.1167 43.7914H26.7667V45.0084C26.7667 45.6801 27.3117 46.2253 27.9833 46.2253C28.6548 46.2253 29.1999 45.6801 29.1999 45.0084V43.7914H31.6333C32.3048 43.7914 32.8499 43.2461 32.8499 42.5744C32.8499 41.9026 32.3048 41.3574 31.6333 41.3574H24.3333V40.1404C24.3333 36.5538 25.5609 35.0508 26.8603 33.4589C28.0101 32.0495 29.2 30.5917 29.2 27.9701V15.7999C29.2 11.5512 31.199 9.43969 31.3511 9.27653L36.5 3.09634L41.7171 9.35183C41.8011 9.4394 43.8 11.551 43.8 15.7997V27.97C43.8 30.5915 44.99 32.0495 46.1397 33.4588C47.4392 35.0507 48.6668 36.5536 48.6668 40.1403V41.3573H41.3668C40.6952 41.3573 40.1502 41.9025 40.1502 42.5742C40.1502 43.246 40.6952 43.7912 41.3668 43.7912H43.8V45.0082C43.8 45.68 44.3451 46.2252 45.0166 46.2252C45.6882 46.2252 46.2332 45.68 46.2332 45.0082V43.7912H49.8832C50.5548 43.7912 51.0998 43.246 51.0998 42.5742V40.1401C51.0998 35.6858 49.3953 33.5974 48.0253 31.919C46.985 30.6449 46.2331 29.7235 46.2331 27.9697V15.7994C46.2331 10.4884 43.5576 7.7512 43.5176 7.7184L37.4342 0.416204C36.9718 -0.138735 36.0277 -0.138735 35.5654 0.416204L29.5565 7.63696C29.4421 7.75134 26.7667 10.4885 26.7667 15.7996V27.9699C26.7667 29.7237 26.0147 30.6449 24.9745 31.9192C23.6044 33.5975 21.8999 35.6859 21.8999 40.1403V42.5744H21.9Z" fill="#FF7149"/>
<path d="M24.3334 25.5359C24.3334 24.8641 23.7883 24.3189 23.1168 24.3189H12.1668C10.5012 24.3189 7.30017 25.8609 7.30017 27.97V62.0469C7.30017 62.7186 7.84525 63.2638 8.51679 63.2638H64.4833C65.1548 63.2638 65.6999 62.7186 65.6999 62.0469V27.97C65.6999 26.0934 63.926 24.3189 62.0499 24.3189H49.8833C49.2118 24.3189 48.6667 24.8641 48.6667 25.5359C48.6667 26.2076 49.2118 26.7529 49.8833 26.7529H62.0499C62.5961 26.7529 63.2665 27.4235 63.2665 27.9699V60.8297H9.7334L9.72613 28.0319C9.87584 27.6035 11.3845 26.7527 12.1668 26.7527H23.1168C23.7883 26.753 24.3334 26.2078 24.3334 25.5359Z" fill="#FF7149"/>
<rect width="36" height="36" fill="black" fill-opacity="0" transform="translate(43 50)"/>
<circle cx="61" cy="68" r="18" fill="#41AA41"/>
<path d="M61 74V62M61 62L66 67.3455M61 62L56 67.3455" stroke="white" stroke-width="2" stroke-linecap="round"/>
</svg>
