<svg width="74" height="66" viewBox="0 0 74 66" fill="none" xmlns="http://www.w3.org/2000/svg">
<rect width="64" height="64" fill="black" fill-opacity="0"/>
<rect width="64" height="64" fill="black" fill-opacity="0"/>
<rect width="64" height="64" fill="black" fill-opacity="0"/>
<rect width="64" height="64" fill="black" fill-opacity="0"/>
<path d="M7.46675 4.2666H6.40012C5.811 4.2666 5.3335 4.7441 5.3335 5.33323C5.3335 5.92235 5.811 6.39998 6.40012 6.39998H7.46675C8.05587 6.39998 8.53337 5.92248 8.53337 5.33335C8.53337 4.74423 8.05587 4.2666 7.46675 4.2666Z" fill="#FF7149"/>
<path d="M12.8 4.2666H11.7334C11.1442 4.2666 10.6667 4.7441 10.6667 5.33323C10.6667 5.92235 11.1444 6.39985 11.7334 6.39985H12.8C13.3891 6.39985 13.8666 5.92235 13.8666 5.33323C13.8666 4.7441 13.3891 4.2666 12.8 4.2666Z" fill="#FF7149"/>
<path d="M18.1335 4.2666H17.0669C16.4777 4.2666 16.0002 4.7441 16.0002 5.33323C16.0002 5.92235 16.4777 6.39985 17.0669 6.39985H18.1335C18.7226 6.39985 19.2001 5.92235 19.2001 5.33323C19.2001 4.7441 18.7225 4.2666 18.1335 4.2666Z" fill="#FF7149"/>
<path d="M51.2001 4.2666H22.4001C21.811 4.2666 21.3335 4.7441 21.3335 5.33323C21.3335 5.92235 21.811 6.39985 22.4001 6.39985H51.2001C51.7892 6.39985 52.2667 5.92235 52.2667 5.33323C52.2667 4.7441 51.7892 4.2666 51.2001 4.2666Z" fill="#FF7149"/>
<path d="M64 38.4C64 37.2218 63.0449 36.2666 61.8666 36.2666H57.6V5.33337C57.5965 2.38925 55.2108 0.0035 52.2666 0H5.33337C2.38925 0.0035 0.0035 2.38925 0 5.33337V48C0.0035 50.944 2.38925 53.3298 5.33337 53.3334H42.1461C44.0991 57.7991 47.4684 61.4975 51.7334 63.8571C52.0634 64.0476 52.47 64.0476 52.8 63.8571C62.5814 58.2038 63.8208 49.3505 63.9765 47.0475C63.9865 47.0099 63.9943 46.9719 64 46.9334C64 46.912 63.9894 46.895 63.9883 46.8736C63.9989 46.6699 64 46.5409 64 46.4992V38.4ZM2.13337 5.33337C2.13337 3.56612 3.56612 2.13337 5.33337 2.13337H52.2668C54.034 2.13337 55.4668 3.56612 55.4668 5.33337V8.53337H2.13337V5.33337ZM6.4 51.2V50.0266C6.39713 48.33 7.33825 46.7726 8.84163 45.9861L15.0005 42.7499C16.2332 42.0414 17.0141 40.7479 17.0666 39.327V36.7009C17.066 36.5045 17.0119 36.3119 16.9099 36.1441C16.0364 34.5993 15.3897 32.9366 14.9899 31.2076C14.9114 30.9485 14.7531 30.7209 14.5376 30.557C14.2569 30.2292 14.0302 29.8588 13.8667 29.4594V27.2L14.7467 25.92C14.8691 25.7414 14.9343 25.5296 14.9334 25.3131V21.1531C14.9333 21.1089 14.9304 21.0648 14.9249 21.0209C14.8448 19.8824 15.2091 18.7571 15.9414 17.8816C16.992 16.6976 18.8043 16.095 21.3228 16.0885C23.8411 16.0821 25.662 16.6986 26.7159 17.8838C27.4498 18.7563 27.8175 19.8789 27.742 21.0165C27.7365 21.0618 27.7336 21.1074 27.7335 21.153V25.313C27.7332 25.5285 27.7984 25.739 27.9201 25.9167L28.8001 27.2V29.4826C28.6607 29.8679 28.4601 30.228 28.206 30.5492C27.9731 30.7001 27.8083 30.9359 27.7463 31.2064C27.343 32.9366 26.6764 34.5947 25.7698 36.1226C25.6594 36.2949 25.6005 36.4951 25.6001 36.6996V39.3257C25.5999 40.7596 26.3965 42.075 27.6674 42.7391L33.8252 45.9754C35.332 46.7636 36.2736 48.3261 36.2669 50.0266V51.2H6.4ZM40.5451 46.8736C40.5451 46.895 40.5334 46.912 40.5334 46.9334C40.539 46.9719 40.5469 47.0099 40.5569 47.0475C40.6676 48.4575 40.9375 49.8506 41.3611 51.2H38.4V50.0266C38.4038 47.5369 37.0229 45.2516 34.8171 44.097L28.6583 40.8532C28.0904 40.5557 27.7342 39.9679 27.7335 39.3269V36.9984C28.6276 35.4404 29.3041 33.7673 29.7441 32.0256C30.2443 31.4425 30.6268 30.768 30.8705 30.0395C30.9121 29.9239 30.9334 29.8019 30.9334 29.679V26.8705C30.9336 26.655 30.8685 26.4445 30.7467 26.2668L29.8668 24.9835V21.2118C29.9949 19.5018 29.4454 17.8099 28.3371 16.5014C26.864 14.8267 24.5056 13.9734 21.3228 13.9606C18.1397 13.9479 15.7879 14.8236 14.318 16.5025C13.2133 17.8125 12.668 19.5044 12.8001 21.2129V24.9835L11.9201 26.2635C11.7984 26.4412 11.7332 26.6518 11.7335 26.8673V29.6758C11.7334 29.814 11.7603 29.9509 11.8124 30.079C12.089 30.7894 12.4859 31.4469 12.9858 32.0225C13.4196 33.7539 14.0741 35.4224 14.9335 36.9868V39.327C14.8791 39.953 14.5376 40.5184 14.0087 40.8576L7.84987 44.0929C5.64275 45.2483 4.26163 47.5355 4.267 50.0267V51.0081C2.99125 50.5571 2.13713 49.3529 2.13337 48V10.6666H55.4668V36.2666H42.6668C41.4885 36.2666 40.5334 37.2218 40.5334 38.4V46.4992C40.5334 46.5409 40.5334 46.6699 40.5451 46.8736ZM42.6666 38.4H51.2V45.8666H42.6666V38.4ZM52.2666 61.6917C48.475 59.4627 45.5279 56.0414 43.8848 51.9616C43.8696 51.9032 43.8489 51.8465 43.8229 51.792C43.3479 50.5686 43.0077 49.2971 42.8085 48H51.2V56.5334C51.2 57.1225 51.6775 57.6 52.2666 57.6C52.8558 57.6 53.3332 57.1224 53.3332 56.5334V48H61.7248C60.7886 53.7529 57.3159 58.7801 52.2666 61.6917ZM61.8666 45.8666H53.3332V38.4H61.8666V45.8666Z" fill="#FF7149"/>
<path d="M36.2667 17.0667H52.2667C52.8558 17.0667 53.3333 16.5892 53.3333 16C53.3333 15.4109 52.8558 14.9334 52.2667 14.9334H36.2667C35.6776 14.9334 35.2001 15.4109 35.2001 16C35.2001 16.5892 35.6777 17.0667 36.2667 17.0667Z" fill="#FF7149"/>
<path d="M36.2667 21.3334H52.2667C52.8558 21.3334 53.3333 20.8559 53.3333 20.2668C53.3333 19.6776 52.8558 19.2001 52.2667 19.2001H36.2667C35.6776 19.2001 35.2001 19.6776 35.2001 20.2668C35.2001 20.8559 35.6777 21.3334 36.2667 21.3334Z" fill="#FF7149"/>
<path d="M36.2667 25.6H52.2667C52.8558 25.6 53.3333 25.1225 53.3333 24.5334C53.3333 23.9443 52.8558 23.4668 52.2667 23.4668H36.2667C35.6776 23.4668 35.2001 23.9443 35.2001 24.5334C35.2001 25.1225 35.6777 25.6 36.2667 25.6Z" fill="#FF7149"/>
<path d="M44.7999 28.8C44.7999 28.2109 44.3224 27.7334 43.7333 27.7334H36.2667C35.6776 27.7334 35.2001 28.2109 35.2001 28.8C35.2001 29.3891 35.6776 29.8666 36.2667 29.8666H43.7333C44.3224 29.8666 44.7999 29.3891 44.7999 28.8Z" fill="#FF7149"/>
<rect width="36" height="36" fill="black" fill-opacity="0" transform="translate(38 30)"/>
<circle cx="56" cy="48" r="18" fill="#41AA41"/>
<rect width="28" height="28" fill="black" fill-opacity="0" transform="translate(42 34)"/>
<path d="M56 38.6666L47.8334 42.0606V47.1515C47.8334 51.8606 51.3178 56.2642 56 57.3333C60.6823 56.2642 64.1667 51.8606 64.1667 47.1515V42.0606L56 38.6666ZM54.1852 52.2424L50.5556 48.8484L51.835 47.6521L54.1852 49.8412L60.165 44.2497L61.4445 45.4545L54.1852 52.2424Z" fill="white"/>
</svg>
