<svg width="74" height="74" viewBox="0 0 74 74" fill="none" xmlns="http://www.w3.org/2000/svg">
<rect width="63.9999" height="68.0001" fill="black" fill-opacity="0"/>
<rect width="63.9999" height="68.0001" fill="black" fill-opacity="0"/>
<rect width="63.9999" height="68.0001" fill="black" fill-opacity="0"/>
<path d="M61.6728 11.043C61.5142 10.4387 60.9008 10.0783 60.3019 10.2372C41.1438 15.3211 33.4684 2.60707 32.4971 0.813175C32.4672 0.71676 32.4252 0.624728 32.3725 0.538938C32.1494 0.224196 31.7897 0.0374756 31.4063 0.0374756C31.0229 0.0374756 30.6632 0.224196 30.4401 0.538938C30.3764 0.644117 30.3299 0.758859 30.302 0.878912C29.1938 2.88702 21.478 15.2711 2.53099 10.2418C1.93205 10.0828 1.31864 10.4432 1.16009 11.0475C1.0568 11.4419 -8.72041 50.6749 30.9241 67.8776C31.0839 67.9577 31.2599 67.9995 31.4383 68.0001C31.657 67.9999 31.8708 67.9353 32.0535 67.8143C71.5297 50.5752 61.7761 11.4372 61.6728 11.043ZM31.417 65.6156C-2.818 50.5105 1.76074 19.0754 3.08229 12.7111C20.0454 16.716 28.6448 7.25901 31.417 3.28702C34.188 7.25343 42.783 16.7058 59.7382 12.7123C60.9541 18.9926 65.2128 50.693 31.417 65.6156Z" fill="#FF7149"/>
<path d="M57.6607 15.7986C57.4214 15.6114 57.1173 15.5297 56.8174 15.5719C55.1559 15.8187 53.4791 15.9448 51.7997 15.9493C51.1796 15.9493 50.677 16.4567 50.677 17.0826C50.677 17.7084 51.1796 18.2158 51.7997 18.2158C53.1985 18.2132 54.5961 18.13 55.9855 17.9665C56.8983 27.7215 55.7385 48.9291 31.4155 60.6288C29.108 59.5272 26.8802 58.2631 24.7484 56.846C24.4143 56.6079 23.9784 56.5719 23.6105 56.7521C23.2426 56.9323 23.0008 57.3002 22.9794 57.7124C22.9581 58.1246 23.1605 58.516 23.5077 58.7339C25.8794 60.3108 28.3647 61.7064 30.9429 62.9088C31.2432 63.05 31.5901 63.05 31.8905 62.9088C59.0115 50.1575 59.2495 26.2461 58.0941 16.559C58.0566 16.2572 57.9004 15.9831 57.6607 15.7986Z" fill="#FF7149"/>
<path d="M7.60366 31.5802C6.71565 27.1059 6.4717 22.5257 6.87946 17.9812C8.25852 18.1426 9.64547 18.2248 11.0337 18.2272C18.6053 18.3817 25.9311 15.512 31.4168 10.2423C34.5062 13.2407 38.2388 15.4803 42.3247 16.7868C42.7069 16.9099 43.1252 16.8177 43.422 16.5451C43.7189 16.2724 43.8489 15.8607 43.7633 15.4651C43.6778 15.0694 43.3896 14.7499 43.0073 14.6267C38.9106 13.3144 35.2049 10.9873 32.2285 7.8578C31.7789 7.41703 31.0635 7.41703 30.6139 7.8578C25.4864 13.185 18.3939 16.1185 11.037 15.9549C9.366 15.9504 7.69734 15.8254 6.04395 15.5809C5.74316 15.5337 5.43646 15.6159 5.19843 15.8076C4.95818 15.9946 4.80305 16.2718 4.76844 16.576C4.18279 21.7322 4.39871 26.9491 5.40843 32.0381C6.83459 39.4137 10.2635 46.2441 15.3126 51.7668C15.7343 52.2262 16.4451 52.2537 16.9002 51.828C17.3553 51.4024 17.3826 50.685 16.9609 50.2257C12.1896 45.0061 8.94982 38.5507 7.60366 31.5802Z" fill="#FF7149"/>
<path d="M7.85947 56.6624H5.61385V54.3959C5.61385 53.77 5.11123 53.2627 4.49111 53.2627C3.87099 53.2627 3.36836 53.77 3.36836 54.3959V56.6624H1.12274C0.502623 56.6624 0 57.1697 0 57.7956C0 58.4215 0.502755 58.9288 1.12274 58.9288H3.36836V61.1954C3.36836 61.8213 3.87099 62.3286 4.49111 62.3286C5.11123 62.3286 5.61385 61.8213 5.61385 61.1954V58.9288H7.85947C8.4796 58.9288 8.98222 58.4215 8.98222 57.7956C8.98222 57.1697 8.4796 56.6624 7.85947 56.6624Z" fill="#FF7149"/>
<path d="M62.8771 62.3286H60.6314V60.062C60.6314 59.4361 60.1288 58.9288 59.5087 58.9288C58.8886 58.9288 58.3859 59.4363 58.3859 60.062V62.3286H56.1403C55.5202 62.3286 55.0176 62.8359 55.0176 63.4618C55.0176 64.0877 55.5202 64.595 56.1403 64.595H58.3859V66.8615C58.3859 67.4874 58.8886 67.9947 59.5087 67.9947C60.1288 67.9947 60.6314 67.4874 60.6314 66.8615V64.5951H62.8771C63.4972 64.5951 63.9998 64.0878 63.9998 63.4619C63.9998 62.836 63.4972 62.3286 62.8771 62.3286Z" fill="#FF7149"/>
<path d="M53.8947 4.53295H55.0175V5.66615C55.0175 6.29205 55.5201 6.79936 56.1402 6.79936C56.7603 6.79936 57.2629 6.29205 57.2629 5.66615V4.53295H58.3857C59.0058 4.53295 59.5084 4.02551 59.5084 3.39974C59.5084 2.77398 59.0058 2.26654 58.3857 2.26654H57.2629V1.1332C57.2629 0.507306 56.7602 0 56.1402 0C55.5202 0 55.0175 0.507306 55.0175 1.1332V2.26641H53.8947C53.2746 2.26641 52.772 2.77371 52.772 3.39961C52.772 4.02551 53.2747 4.53295 53.8947 4.53295Z" fill="#FF7149"/>
<path d="M45.3102 44.7463C45.5078 44.3868 45.497 43.9475 45.2821 43.5984C44.7424 42.7386 43.9877 42.0377 43.0939 41.5665L38.0638 38.9317C37.6912 38.7358 37.4562 38.3483 37.4531 37.9242V36.1031C38.1653 34.8493 38.7093 33.5056 39.0711 32.1072C39.4764 31.6147 39.7903 31.0522 39.9974 30.4471C40.0417 30.3232 40.0645 30.1924 40.0647 30.0606V27.776C40.0645 27.5451 39.9943 27.3197 39.8638 27.1301L39.1901 26.1532V23.1818C39.2941 21.7294 38.8307 20.2934 37.899 19.1814C36.6482 17.74 34.6542 17.0056 31.9639 16.9988C29.2737 16.9921 27.2931 17.7388 26.0457 19.1792C25.1155 20.293 24.6541 21.73 24.7601 23.1829V26.1532L24.0864 27.1301C23.9558 27.3197 23.8856 27.5451 23.8855 27.776V30.0606C23.8856 30.2079 23.9142 30.3538 23.9697 30.4901C24.1997 31.0825 24.5277 31.6314 24.9398 32.1129C25.2913 33.5003 25.8146 34.8375 26.4972 36.0929V37.9242C26.4486 38.3347 26.2247 38.7033 25.8842 38.9329L20.84 41.5731C19.9527 42.0444 19.2035 42.7429 18.6674 43.5982C18.4515 43.9487 18.4415 44.3899 18.6411 44.75C18.8407 45.1102 19.2186 45.3322 19.6274 45.3298H44.3287C44.7366 45.3297 45.1123 45.1062 45.3102 44.7463ZM22.8836 43.0634L26.9256 40.9421C28.0062 40.3192 28.6933 39.1791 28.7445 37.9242V35.7869C28.7439 35.576 28.6856 35.3694 28.5761 35.1897C27.8773 33.959 27.3614 32.6314 27.0447 31.2495C26.9915 30.9678 26.8243 30.7213 26.5832 30.5695C26.3997 30.3426 26.2485 30.0908 26.1342 29.8216V28.1297L26.8078 27.1528C26.9378 26.9634 27.0076 26.7384 27.0077 26.508V23.1275C27.0077 23.0779 27.0044 23.0283 26.9976 22.9791C26.9395 22.1419 27.2052 21.3145 27.7386 20.6707C28.5414 19.7437 29.9651 19.2711 31.9659 19.2655C33.5054 19.1079 35.0394 19.6117 36.192 20.6537C36.7395 21.2979 37.0141 22.1335 36.9566 22.9802C36.9499 23.0291 36.9465 23.0783 36.9465 23.1275V26.508C36.9466 26.7384 37.0164 26.9634 37.1463 27.1528L37.82 28.1297V29.8465C37.7229 30.0925 37.6015 30.3279 37.4574 30.5492C37.2108 30.7084 37.0356 30.9585 36.969 31.2461C36.6457 32.6281 36.1132 33.9513 35.3903 35.1694C35.2722 35.3533 35.209 35.5678 35.2085 35.7871V37.9244C35.2061 39.1968 35.9098 40.3634 37.0308 40.9456L41.0796 43.0637H22.8836V43.0634Z" fill="#FF7149"/>
<path d="M25.2415 47.5964C24.6214 47.5964 24.1188 48.1037 24.1188 48.7296C24.1188 49.3555 24.6214 49.8628 25.2415 49.8628H38.715C39.3351 49.8628 39.8377 49.3555 39.8377 48.7296C39.8377 48.1037 39.3351 47.5964 38.715 47.5964H25.2415Z" fill="#FF7149"/>
<rect width="36" height="36" fill="black" fill-opacity="0" transform="translate(38 38)"/>
<circle cx="56" cy="56" r="18" fill="#41AA41"/>
<rect width="16" height="16" fill="black" fill-opacity="0" transform="translate(48 48)"/>
<path d="M48.6666 62H51.3333V54H48.6666V62ZM63.3333 54.6666C63.3333 53.9333 62.7333 53.3333 62 53.3333H57.7933L58.4266 50.2866L58.4466 50.0733C58.4466 49.8 58.3333 49.5466 58.1533 49.3666L57.4466 48.6666L53.06 53.06C52.8133 53.3 52.6666 53.6333 52.6666 54V60.6666C52.6666 61.4 53.2666 62 54 62H60C60.5533 62 61.0266 61.6666 61.2266 61.1866L63.24 56.4866C63.3 56.3333 63.3333 56.1733 63.3333 56V54.6666Z" fill="white"/>
</svg>
